<?xml version="1.0" standalone="no"?>
<!DOCTYPE svg PUBLIC "-//W3C//DTD SVG 20010904//EN"
 "http://www.w3.org/TR/2001/REC-SVG-20010904/DTD/svg10.dtd">
<svg version="1.0" xmlns="http://www.w3.org/2000/svg"
 width="1200.000000pt" height="1200.000000pt" viewBox="0 0 1200.000000 1200.000000"
 preserveAspectRatio="xMidYMid meet">
<metadata>
Created by potrace 1.11, written by Peter Selinger 2001-2013
</metadata>
<g transform="translate(0.000000,1200.000000) scale(0.100000,-0.100000)"
fill="#000000" stroke="none">
<path d="M3025 10782 c5 -13 299 -526 540 -942 128 -222 612 -1059 655 -1134
10 -17 84 -146 165 -286 81 -140 159 -275 173 -300 13 -25 28 -49 32 -55 4 -5
19 -30 32 -55 14 -25 76 -132 137 -238 61 -106 120 -207 130 -225 10 -17 77
-133 148 -257 72 -124 140 -241 151 -260 53 -94 255 -442 335 -580 97 -168
116 -200 148 -257 17 -31 145 -253 301 -523 12 -19 29 -48 38 -65 10 -16 86
-149 170 -295 83 -146 162 -281 175 -300 l22 -35 211 0 c116 0 213 3 215 5 2
3 -70 133 -161 290 -90 157 -206 357 -257 445 -51 88 -193 333 -315 545 -122
212 -233 403 -245 425 -13 22 -62 108 -110 190 -48 83 -99 170 -113 195 -14
25 -89 155 -167 290 -78 135 -238 412 -355 615 -117 204 -251 434 -297 513
-45 79 -83 146 -83 149 0 4 -6 14 -14 22 -7 9 -27 41 -43 71 -17 30 -54 96
-83 145 -29 50 -61 106 -72 125 -11 19 -54 94 -96 165 -41 72 -86 149 -99 172
-13 23 -79 138 -146 255 -68 117 -135 233 -149 258 -14 25 -49 86 -78 135 -29
50 -64 110 -78 135 -14 25 -36 62 -49 82 -12 21 -23 40 -23 43 0 3 -11 22 -24
43 -13 20 -83 141 -156 267 -73 127 -134 232 -137 235 -2 2 -100 4 -219 5
-168 0 -213 -3 -209 -13z"/>
<path d="M3188 8915 c-1 -1 -37 -6 -77 -9 -41 -4 -78 -9 -81 -11 -4 -2 -17 -6
-31 -9 -13 -3 -36 -8 -50 -10 -57 -12 -188 -59 -267 -96 -453 -212 -766 -623
-850 -1117 -15 -90 -17 -217 -16 -1368 1 -699 4 -1297 8 -1330 9 -84 51 -246
85 -337 166 -430 513 -760 945 -897 50 -17 116 -34 146 -40 30 -6 66 -15 80
-18 14 -4 1000 -9 2193 -10 l2167 -3 -32 57 c-18 32 -66 116 -108 188 l-76
130 -2009 1 c-1796 1 -2019 3 -2095 17 -235 45 -434 149 -600 317 -130 131
-220 277 -274 445 -52 162 -55 212 -56 769 l0 516 1486 0 c833 0 1484 4 1482
9 -1 4 -50 89 -107 188 l-103 180 -1362 1 c-748 0 -1369 1 -1379 1 -17 1 -18
29 -16 524 1 561 3 596 54 757 78 246 251 468 470 607 105 66 270 132 380 152
119 21 164 23 408 24 136 0 247 2 247 4 0 2 -48 87 -107 189 l-107 185 -172
-1 c-95 -1 -174 -3 -176 -5z"/>
<path d="M5100 8915 c0 -3 34 -65 76 -137 42 -72 84 -146 94 -163 10 -18 24
-41 31 -52 12 -20 25 -20 2113 -20 1156 -1 2127 -4 2160 -7 69 -8 170 -39 241
-74 195 -96 338 -275 394 -492 18 -68 20 -111 20 -455 0 -231 -4 -398 -10
-425 -6 -25 -13 -55 -15 -68 -9 -46 -82 -189 -129 -251 -85 -111 -226 -211
-361 -255 -56 -18 -76 -23 -144 -32 -25 -4 -505 -7 -1067 -7 -563 0 -1023 -1
-1023 -3 0 -5 46 -88 105 -189 29 -49 63 -108 75 -130 22 -40 88 -154 637
-1105 155 -267 290 -502 302 -524 12 -21 78 -135 147 -255 68 -119 130 -225
136 -236 6 -11 57 -99 113 -195 l102 -175 757 -3 756 -2 0 187 0 188 -644 0
-645 0 -152 265 c-83 146 -159 276 -168 290 -8 14 -21 34 -26 45 -6 11 -64
112 -129 223 -64 112 -126 219 -137 238 -38 67 -59 104 -274 474 -119 206
-227 393 -240 415 -12 22 -32 57 -45 78 l-22 37 714 0 c392 0 738 3 768 6 68
8 216 45 290 73 30 11 90 41 134 66 299 170 500 456 560 795 21 118 21 817 0
935 -20 119 -50 208 -105 320 -125 256 -355 461 -627 559 -183 66 19 60 -2489
64 -1250 1 -2273 0 -2273 -3z"/>
<path d="M5898 7600 c-37 -5 -38 -6 -24 -30 14 -25 116 -202 211 -365 29 -49
63 -110 77 -135 14 -25 49 -85 78 -135 29 -49 64 -110 78 -135 14 -25 97 -168
184 -318 87 -151 158 -276 158 -279 0 -4 6 -14 14 -22 7 -9 27 -41 43 -71 17
-30 54 -95 83 -145 29 -49 64 -110 78 -135 14 -25 35 -61 47 -80 12 -19 25
-42 28 -50 4 -8 15 -28 26 -45 16 -27 488 -844 533 -923 21 -37 179 -310 238
-412 21 -36 96 -166 168 -290 71 -124 139 -241 151 -260 11 -19 24 -42 28 -50
3 -8 25 -46 48 -85 23 -38 121 -207 217 -375 97 -168 205 -356 242 -419 36
-62 66 -115 66 -117 0 -2 16 -28 35 -58 19 -30 35 -57 35 -60 0 -5 28 -54 90
-156 7 -13 59 -103 288 -499 17 -31 47 -82 64 -113 l33 -58 217 0 c120 0 218
3 218 8 0 4 -9 18 -20 32 -11 14 -20 28 -20 32 0 4 -80 145 -178 315 -98 169
-241 416 -317 548 -76 132 -222 384 -323 560 -102 176 -210 363 -241 415 -30
52 -61 104 -67 116 -6 11 -46 81 -89 155 -43 74 -87 150 -98 169 -11 19 -129
225 -263 457 -134 232 -252 437 -263 455 -10 18 -78 137 -151 263 -329 568
-708 1226 -748 1297 -12 20 -32 54 -45 75 -13 21 -35 58 -49 83 -14 25 -36 63
-48 85 -13 22 -40 69 -60 105 -20 36 -86 151 -147 255 -139 239 -155 267 -195
338 l-33 57 -60 1 c-33 0 -114 1 -180 2 -66 1 -137 0 -157 -3z"/>
<path d="M2189 3105 c-3 -128 0 -1327 4 -1332 5 -4 569 -7 699 -4 l28 1 -3 77
-2 76 -278 0 -277 0 0 254 0 253 38 0 c20 1 143 2 272 3 l234 2 1 78 1 77
-273 0 -273 0 0 190 0 190 253 -1 c138 0 264 0 278 0 25 1 26 3 27 64 1 34 -1
69 -3 77 -4 13 -52 15 -365 15 -354 0 -360 0 -361 -20z"/>
<path d="M6468 2936 c0 -1 -2 -68 -4 -151 -3 -186 -3 -175 -11 -174 -5 1 -24
1 -44 0 l-36 -1 0 -75 0 -75 43 0 c35 0 44 -4 45 -17 0 -10 1 -165 1 -345 1
-295 2 -328 17 -329 18 -1 107 -1 131 0 13 1 15 45 15 344 l0 342 82 3 82 3 0
74 0 75 -80 0 c-56 0 -79 4 -80 13 -1 6 -2 79 -3 161 l-1 150 -77 1 c-43 1
-79 1 -80 1z"/>
<path d="M3260 2620 c-62 -21 -102 -58 -135 -124 -63 -127 -6 -245 162 -331
72 -37 137 -80 162 -106 45 -49 26 -126 -41 -160 -66 -34 -138 -11 -183 59
-11 17 -23 31 -28 32 -12 0 -137 -63 -137 -70 0 -17 61 -99 88 -119 150 -107
373 -71 457 73 64 111 40 249 -58 326 -14 11 -79 48 -144 81 -153 79 -174 105
-136 170 31 52 105 51 155 -3 l28 -30 65 33 c36 19 65 37 65 40 0 16 -87 102
-120 119 -54 27 -137 31 -200 10z"/>
<path d="M4170 2625 c-71 -19 -132 -54 -177 -103 l-43 -45 0 69 0 69 -76 -2
c-41 0 -78 -4 -81 -7 -4 -4 -7 -1118 -4 -1291 l1 -30 80 0 80 -1 0 305 0 305
44 -47 c133 -138 353 -147 497 -18 26 22 60 62 77 88 28 45 70 159 71 193 0 8
0 43 1 77 5 208 -110 384 -285 437 -41 12 -141 13 -185 1z m154 -160 c87 -42
144 -130 153 -238 16 -195 -89 -335 -257 -342 -106 -4 -189 45 -235 139 -85
174 -33 366 120 444 52 26 161 25 219 -3z"/>
<path d="M5100 2628 c-174 -27 -328 -175 -364 -351 -56 -275 153 -536 434
-538 116 -1 218 37 304 112 153 135 195 349 105 534 -86 179 -275 274 -479
243z m193 -177 c190 -92 228 -332 75 -478 -109 -105 -296 -98 -404 15 -71 75
-94 200 -55 302 33 87 114 162 196 180 55 13 141 4 188 -19z"/>
<path d="M6096 2621 c-50 -17 -109 -68 -132 -113 -8 -16 -16 -28 -17 -28 -2 0
-3 29 -2 65 l2 65 -28 1 c-16 0 -42 1 -59 1 -16 0 -41 -1 -53 -1 l-24 -1 0
-420 0 -420 23 -1 c13 0 40 -1 59 -1 19 0 45 1 58 1 l22 1 1 228 c0 270 5 325
32 379 26 50 75 92 110 95 72 4 89 3 119 -11 18 -8 34 -13 36 -10 12 13 67
132 67 143 0 34 -143 52 -214 27z"/>
<path d="M7044 2625 c-28 -6 -66 -23 -86 -38 -46 -36 -88 -115 -93 -175 -7
-95 46 -168 175 -239 160 -88 200 -125 200 -185 0 -35 -42 -84 -84 -98 -64
-21 -140 11 -171 71 -9 16 -19 29 -23 29 -3 0 -37 -14 -74 -32 l-67 -31 19
-36 c42 -82 111 -128 220 -146 108 -19 184 3 261 72 83 75 110 193 65 289 -30
65 -72 100 -197 163 -136 70 -165 92 -171 131 -4 24 2 38 23 61 40 42 86 40
136 -7 l38 -36 62 32 c35 17 63 38 63 45 0 23 -94 111 -131 123 -54 18 -110
20 -165 7z"/>
</g>
</svg>
